<svg width="230" height="45" fill="none" xmlns="http://www.w3.org/2000/svg"><path d="M22.23 22.363c0-2.243-.715-4.152-2.147-5.728-1.432-1.575-3.198-2.362-5.298-2.362-2.076 0-3.83.787-5.263 2.362-1.432 1.575-2.147 3.485-2.147 5.728 0 2.22.715 4.117 2.147 5.692 1.432 1.551 3.187 2.327 5.263 2.327 2.1 0 3.866-.776 5.298-2.327 1.432-1.575 2.148-3.472 2.148-5.692Zm1.898 9.2c-2.53 2.459-5.644 3.688-9.343 3.688-3.7 0-6.814-1.23-9.344-3.688-2.53-2.482-3.794-5.56-3.794-9.236 0-3.675 1.265-6.742 3.794-9.2 2.53-2.482 5.645-3.723 9.344-3.723s6.814 1.241 9.343 3.723c2.53 2.458 3.795 5.525 3.795 9.2 0 3.676-1.265 6.754-3.795 9.236Zm15.686 3.723c-2.267 0-4.296-.966-6.086-2.9-1.79-1.932-2.684-4.33-2.684-7.195 0-2.864.87-5.203 2.613-7.016 1.742-1.838 3.783-2.757 6.121-2.757 2.34 0 4.248.824 5.728 2.47v-9.45h5.37V35h-5.37v-2.542c-1.503 1.886-3.4 2.828-5.692 2.828Zm-3.365-9.88c0 1.551.465 2.828 1.396 3.83.931.979 2.017 1.468 3.258 1.468 1.24 0 2.291-.49 3.15-1.468.883-1.002 1.325-2.279 1.325-3.83 0-1.575-.442-2.876-1.325-3.902-.859-1.05-1.921-1.575-3.186-1.575s-2.35.525-3.258 1.575c-.906 1.05-1.36 2.35-1.36 3.902Zm30.608-9.988c2.34 0 4.38.919 6.122 2.757 1.742 1.813 2.613 4.152 2.613 7.016s-.895 5.263-2.685 7.196c-1.79 1.933-3.83 2.9-6.121 2.9-2.267 0-4.153-.943-5.656-2.829V35h-5.37V8.437h5.37v9.451c1.48-1.646 3.389-2.47 5.727-2.47Zm-5.799 9.988c0 1.551.43 2.828 1.289 3.83.883.979 1.945 1.468 3.186 1.468 1.24 0 2.327-.49 3.257-1.468.931-1.002 1.397-2.279 1.397-3.83 0-1.551-.454-2.852-1.36-3.902-.908-1.05-1.993-1.575-3.258-1.575s-2.34.525-3.222 1.575c-.86 1.026-1.289 2.327-1.289 3.902Zm22.84-.036c0 1.575.442 2.864 1.325 3.866.906.979 2.052 1.468 3.436 1.468 1.408 0 2.554-.49 3.437-1.468.907-1.002 1.36-2.29 1.36-3.866 0-1.575-.453-2.864-1.36-3.866C91.413 20.502 90.267 20 88.859 20c-1.384 0-2.53.502-3.436 1.504-.883 1.002-1.325 2.291-1.325 3.866Zm14.964 0c0 2.793-.967 5.143-2.9 7.052-1.933 1.91-4.367 2.864-7.303 2.864-2.911 0-5.334-.954-7.267-2.864-1.933-1.909-2.9-4.26-2.9-7.052s.967-5.143 2.9-7.052c1.933-1.933 4.356-2.9 7.267-2.9 2.936 0 5.37.967 7.303 2.9 1.933 1.91 2.9 4.26 2.9 7.052Zm14.119-4.904c-1.599 0-2.792.573-3.58 1.718-.787 1.122-1.181 2.613-1.181 4.475V35h-5.37V15.74h5.37v2.542c.692-.788 1.551-1.456 2.578-2.005 1.05-.549 2.112-.835 3.186-.859l.035 5.048h-1.038Zm7.917 22.123c-1.886 0-3.664-.763-5.334-2.29l2.434-3.974c.907.883 1.838 1.324 2.792 1.324.501 0 .931-.25 1.289-.752.358-.477.537-.99.537-1.539 0-.549-2.482-7.088-7.446-19.618h5.728l4.689 11.993 4.69-11.993h5.728l-8.95 22.697c-.525 1.312-1.349 2.327-2.47 3.043-1.098.74-2.327 1.11-3.687 1.11Z" fill="#E8A848"/><path d="M171.606 13.752c2.164 0 3.867.517 5.108 1.551 1.241 1.034 1.861 2.459 1.861 4.272 0 1.814-.62 3.238-1.861 4.272-1.241 1.034-2.944 1.551-5.108 1.551h-4.128v5.06h-2.387V13.752h6.515Zm-.071 9.57c1.511 0 2.665-.318 3.46-.954.796-.653 1.194-1.583 1.194-2.793 0-1.209-.398-2.132-1.194-2.768-.795-.652-1.949-.979-3.46-.979h-4.057v7.494h4.057ZM181.98 12.75h2.291v17.708h-2.291V12.75Zm18.456 5.06v12.648h-2.172v-1.91a4.684 4.684 0 0 1-1.838 1.528 5.726 5.726 0 0 1-2.458.525c-1.687 0-3.015-.461-3.986-1.384-.97-.939-1.455-2.315-1.455-4.129V17.81h2.291v7.017c0 1.225.294 2.156.883 2.792.588.62 1.432.93 2.529.93 1.21 0 2.164-.365 2.864-1.097.7-.732 1.05-1.766 1.05-3.103V17.81h2.292Zm7.989 12.791c-1.034 0-2.029-.135-2.983-.405-.955-.287-1.703-.645-2.244-1.074l.955-1.814c.557.398 1.233.716 2.028.954a8.35 8.35 0 0 0 2.411.358c2.005 0 3.007-.572 3.007-1.718 0-.382-.135-.684-.406-.907-.27-.223-.612-.382-1.026-.477a18.07 18.07 0 0 0-1.718-.358c-1.019-.16-1.854-.342-2.506-.55a3.847 3.847 0 0 1-1.647-1.05c-.461-.492-.692-1.184-.692-2.075 0-1.146.477-2.06 1.432-2.745.954-.7 2.235-1.05 3.842-1.05.843 0 1.687.103 2.53.31.843.207 1.535.485 2.076.835l-.978 1.814c-1.034-.668-2.252-1.002-3.652-1.002-.97 0-1.71.159-2.219.477-.509.318-.764.74-.764 1.265 0 .414.143.74.43.979.286.238.636.413 1.05.525.429.111 1.026.238 1.79.381 1.018.175 1.837.366 2.458.573a3.596 3.596 0 0 1 1.623 1.003c.445.477.668 1.145.668 2.004 0 1.146-.493 2.06-1.48 2.745-.97.668-2.299 1.002-3.985 1.002Z" fill="#E33131"/><rect x="148.788" y="1.119" width="79.801" height="41.765" rx="6.339" stroke="#E33131" stroke-width="2.237"/></svg>